<svg aria-hidden="true" style="position:absolute;width:0;height:0;overflow:hidden" xmlns="http://www.w3.org/2000/svg"><defs><symbol id="cross" viewBox="0 0 32 32"><path d="M29.333 13.333H18.666V2.666a2.666 2.666 0 1 0-5.334 0v10.667H2.665a2.666 2.666 0 1 0 0 5.334h10.667v10.667a2.666 2.666 0 1 0 5.334 0V18.667h10.667a2.666 2.666 0 1 0 0-5.334z"/></symbol><symbol id="ellipsis" viewBox="0 0 32 32"><path fill="#df4e3c" style="fill:var(--color1,#df4e3c)" d="M18.667 13.091h10.667c1.475 0 2.667 1.303 2.667 2.909s-1.192 2.909-2.667 2.909H2.667C1.192 18.909 0 17.606 0 16s1.192-2.909 2.667-2.909h16z"/></symbol><symbol id="facebook" viewBox="0 0 32 32"><path d="M21.969 5.313h2.921V.225C24.386.156 22.653 0 20.634 0c-4.212 0-7.097 2.649-7.097 7.519V12H8.889v5.688h4.648V32h5.699V17.689h4.46l.708-5.688h-5.169V8.082c.001-1.644.444-2.769 2.735-2.769z"/></symbol><symbol id="instagram" viewBox="0 0 32 32"><path d="m16.316 32-.319-.001c-2.508.006-4.826-.058-7.08-.195-2.066-.126-3.953-.84-5.455-2.065-1.45-1.182-2.44-2.78-2.942-4.75-.438-1.715-.461-3.398-.483-5.026a343.641 343.641 0 0 1-.036-3.96c.003-1.414.02-2.798.036-3.966.022-1.628.045-3.311.483-5.026.503-1.97 1.493-3.568 2.942-4.75C4.965 1.036 6.851.322 8.918.196c2.254-.137 4.572-.201 7.086-.195 2.509-.005 4.826.058 7.08.195 2.067.126 3.953.84 5.455 2.065 1.45 1.182 2.44 2.78 2.942 4.75.438 1.715.461 3.398.483 5.026.016 1.168.033 2.552.036 3.96v.006c-.003 1.408-.02 2.792-.036 3.96-.022 1.628-.045 3.311-.483 5.026-.503 1.97-1.492 3.568-2.942 4.75-1.503 1.225-3.389 1.939-5.455 2.065-2.159.131-4.376.195-6.768.195zm-.319-2.5c2.468.006 4.733-.057 6.934-.19 1.563-.095 2.917-.602 4.027-1.507 1.026-.837 1.732-1.991 2.1-3.431.364-1.428.385-2.96.405-4.442.016-1.16.033-2.535.036-3.929a339.15 339.15 0 0 0-.036-3.929c-.02-1.482-.041-3.015-.405-4.443-.367-1.44-1.074-2.594-2.1-3.431-1.11-.905-2.465-1.412-4.027-1.507a108.819 108.819 0 0 0-6.929-.19c-2.467-.006-4.733.056-6.934.19-1.563.095-2.917.602-4.027 1.507-1.026.837-1.732 1.991-2.1 3.431-.364 1.428-.385 2.96-.406 4.443a363.726 363.726 0 0 0-.036 3.932c.003 1.389.02 2.765.036 3.926.02 1.482.041 3.015.406 4.442.367 1.44 1.074 2.594 2.1 3.431 1.11.905 2.465 1.412 4.027 1.507 2.201.134 4.467.196 6.928.19zm-.06-5.688c-4.308 0-7.813-3.505-7.813-7.812s3.505-7.813 7.813-7.813S23.75 11.692 23.75 16s-3.505 7.812-7.813 7.812zm0-13.125c-2.929 0-5.313 2.383-5.313 5.313s2.383 5.313 5.313 5.313c2.929 0 5.313-2.383 5.313-5.313s-2.383-5.313-5.313-5.313zm8.688-5a1.874 1.874 0 1 0-.001 3.749 1.874 1.874 0 0 0 .001-3.749z"/></symbol><symbol id="sort-by" viewBox="0 0 32 32"><path fill="#df4e3c" style="fill:var(--color1,#df4e3c)" d="M10.667 0 3.556 7.093h5.333v12.462h3.556V7.093h5.333L10.667 0z"/><path fill="#8d8d8d" style="fill:var(--color3,#8d8d8d)" d="M23.111 24.907V12.445h-3.555v12.462h-5.333L21.334 32l7.111-7.093h-5.333z"/></symbol></defs></svg>