<svg aria-hidden="true" style="position:absolute;width:0;height:0;overflow:hidden" xmlns="http://www.w3.org/2000/svg"><defs><symbol id="instagram" viewBox="0 0 32 32"><path fill="" style="" d="M15.587 26.88h-.229a80.25 80.25 0 0 1-5.098-.14c-1.488-.09-2.846-.605-3.928-1.487-1.044-.851-1.757-2.002-2.119-3.42-.315-1.235-.332-2.447-.348-3.619-.012-.841-.024-1.838-.026-2.851.002-1.018.014-2.014.026-2.856.016-1.172.033-2.384.348-3.619.362-1.418 1.075-2.569 2.119-3.42 1.082-.882 2.44-1.396 3.928-1.487a79.56 79.56 0 0 1 5.102-.14 80.979 80.979 0 0 1 5.098.14c1.488.091 2.846.605 3.928 1.487 1.044.851 1.757 2.002 2.119 3.42.315 1.235.332 2.447.348 3.619.012.841.024 1.838.026 2.851v.004c-.002 1.014-.014 2.01-.026 2.851-.016 1.172-.032 2.384-.348 3.619-.362 1.418-1.075 2.569-2.119 3.42-1.082.882-2.44 1.396-3.928 1.487a79.33 79.33 0 0 1-4.873.141zm-.229-1.8a78.987 78.987 0 0 0 4.993-.137c1.125-.068 2.1-.434 2.9-1.085.739-.602 1.247-1.434 1.512-2.47.262-1.028.277-2.131.292-3.199.011-.835.023-1.825.026-2.829a230.667 230.667 0 0 0-.026-2.829c-.015-1.067-.03-2.171-.292-3.199-.265-1.037-.773-1.868-1.512-2.47-.799-.651-1.775-1.017-2.9-1.085a78.942 78.942 0 0 0-4.989-.137 79.008 79.008 0 0 0-4.993.137c-1.125.068-2.101.433-2.9 1.085-.739.602-1.247 1.434-1.512 2.47-.262 1.028-.277 2.131-.292 3.199-.011.836-.023 1.826-.026 2.831.002 1 .014 1.991.026 2.827.015 1.067.03 2.171.292 3.199.265 1.037.773 1.868 1.512 2.47.799.651 1.775 1.016 2.9 1.085 1.585.096 3.217.141 4.988.137zm-.043-4.095c-3.102 0-5.625-2.523-5.625-5.625s2.524-5.625 5.625-5.625c3.102 0 5.625 2.523 5.625 5.625s-2.524 5.625-5.625 5.625zm0-9.45c-2.109 0-3.825 1.716-3.825 3.825s1.716 3.825 3.825 3.825 3.825-1.716 3.825-3.825-1.716-3.825-3.825-3.825zm6.255-3.6a1.35 1.35 0 1 0-.001 2.699 1.35 1.35 0 0 0 .001-2.699z"></path></symbol><symbol id="ellipsis" viewBox="0 0 32 32"><path fill="#df4e3c" style="fill:var(--color2, #df4e3c)" d="M18.667 13.091h10.667c1.475 0 2.667 1.303 2.667 2.909s-1.192 2.909-2.667 2.909H2.667C1.192 18.909 0 17.606 0 16s1.192-2.909 2.667-2.909h16z"></path></symbol><symbol id="cross" viewBox="0 0 32 32"><path d="M29.333 13.333H18.666V2.666a2.666 2.666 0 1 0-5.334 0v10.667H2.665a2.666 2.666 0 1 0 0 5.334h10.667v10.667a2.666 2.666 0 1 0 5.334 0V18.667h10.667a2.666 2.666 0 1 0 0-5.334z"></path></symbol><symbol id="sort-by" viewBox="0 0 32 32"><path fill="#df4e3c" style="fill:var(--color2, #df4e3c)" d="M10.667 0 3.556 7.093h5.333v12.462h3.556V7.093h5.333L10.667 0z"></path><path fill="#8d8d8d" style="fill:var(--color3, #8d8d8d)" d="M23.111 24.907V12.445h-3.555v12.462h-5.333L21.334 32l7.111-7.093h-5.333z"></path></symbol><symbol id="facebook" viewBox="0 0 32 32"><path fill="" style="" d="M21.969 5.313h2.921V.225C24.386.156 22.653 0 20.634 0c-4.212 0-7.097 2.649-7.097 7.519V12H8.889v5.688h4.648V32h5.699V17.689h4.46l.708-5.688h-5.169V8.082c.001-1.644.444-2.769 2.735-2.769z"></path></symbol></defs></svg>